<svg width="24" height="24" viewBox="0 0 24 24" fill="none" xmlns="http://www.w3.org/2000/svg">
<path d="M17.6904 8.50559C17.1812 7.3356 16.3024 6.36482 15.1888 5.74203C14.0751 5.11924 12.7879 4.87879 11.5245 5.05752C10.2611 5.23625 9.09113 5.8243 8.19391 6.73157C7.29668 7.63884 6.72169 8.81527 6.55703 10.0806C5.76252 10.2709 5.06555 10.7463 4.59848 11.4166C4.13141 12.0869 3.92677 12.9054 4.02342 13.7166C4.12007 14.5278 4.51127 15.2753 5.12275 15.8171C5.73423 16.3589 6.52339 16.6573 7.34036 16.6556C7.56138 16.6556 7.77334 16.5678 7.92962 16.4115C8.0859 16.2552 8.1737 16.0433 8.1737 15.8223C8.1737 15.6012 8.0859 15.3893 7.92962 15.233C7.77334 15.0767 7.56138 14.9889 7.34036 14.9889C6.89834 14.9889 6.47441 14.8133 6.16185 14.5008C5.84929 14.1882 5.6737 13.7643 5.6737 13.3223C5.6737 12.8802 5.84929 12.4563 6.16185 12.1437C6.47441 11.8312 6.89834 11.6556 7.34036 11.6556C7.56138 11.6556 7.77334 11.5678 7.92962 11.4115C8.0859 11.2552 8.1737 11.0433 8.1737 10.8223C8.17583 9.83666 8.52727 8.88372 9.16559 8.13275C9.80391 7.38177 10.6878 6.88139 11.6602 6.72049C12.6325 6.55959 13.6305 6.7486 14.4767 7.25393C15.3229 7.75927 15.9625 8.54821 16.282 9.48059C16.3297 9.62379 16.4153 9.75137 16.5298 9.8497C16.6442 9.94804 16.7833 10.0134 16.932 10.0389C17.4871 10.1438 17.9903 10.4336 18.3596 10.861C18.7289 11.2885 18.9425 11.8284 18.9657 12.3928C18.9889 12.9572 18.8203 13.5128 18.4873 13.9691C18.1543 14.4254 17.6766 14.7555 17.132 14.9056C16.9176 14.9608 16.734 15.099 16.6215 15.2897C16.5089 15.4803 16.4768 15.7079 16.532 15.9223C16.5873 16.1366 16.7254 16.3203 16.9161 16.4328C17.1068 16.5453 17.3343 16.5775 17.5487 16.5223C18.4257 16.2905 19.2031 15.7789 19.7629 15.0651C20.3226 14.3514 20.6342 13.4744 20.6502 12.5675C20.6663 11.6605 20.3859 10.7731 19.8517 10.04C19.3175 9.30692 18.5586 8.76818 17.6904 8.50559ZM12.932 19.0847C12.8528 19.1606 12.7593 19.2201 12.657 19.2597C12.4541 19.3431 12.2266 19.3431 12.0237 19.2597C11.9214 19.2201 11.828 19.1606 11.7487 19.0847L9.2487 16.5847C9.09178 16.4278 9.00362 16.215 9.00362 15.9931C9.00362 15.7712 9.09178 15.5583 9.2487 15.4014C9.40562 15.2445 9.61845 15.1563 9.84036 15.1563C10.0623 15.1563 10.2751 15.2445 10.432 15.4014L11.507 16.4847V11.8264C11.507 11.6054 11.5948 11.3934 11.7511 11.2372C11.9074 11.0809 12.1193 10.9931 12.3404 10.9931C12.5614 10.9931 12.7733 11.0809 12.9296 11.2372C13.0859 11.3934 13.1737 11.6054 13.1737 11.8264V16.4847L14.2487 15.4014C14.3262 15.3233 14.4183 15.2613 14.5199 15.219C14.6214 15.1767 14.7304 15.1549 14.8404 15.1549C14.9504 15.1549 15.0593 15.1767 15.1608 15.219C15.2624 15.2613 15.3546 15.3233 15.432 15.4014C15.5101 15.4789 15.5721 15.5711 15.6144 15.6726C15.6567 15.7742 15.6785 15.8831 15.6785 15.9931C15.6785 16.1031 15.6567 16.212 15.6144 16.3136C15.5721 16.4151 15.5101 16.5073 15.432 16.5847L12.932 19.0847Z" fill="#ECEFF4"/>
</svg>
