<svg width="24" height="24" viewBox="0 0 24 24" fill="none" xmlns="http://www.w3.org/2000/svg">
<path d="M20.4424 19.2591L17.3508 16.1924C18.5508 14.6961 19.132 12.7968 18.9748 10.8852C18.8175 8.9735 17.9338 7.19474 16.5054 5.91462C15.0769 4.63451 13.2123 3.95034 11.2949 4.00281C9.37745 4.05528 7.55302 4.84039 6.1967 6.1967C4.84039 7.55302 4.05528 9.37745 4.00281 11.2949C3.95034 13.2123 4.63451 15.0769 5.91462 16.5054C7.19474 17.9338 8.9735 18.8175 10.8852 18.9748C12.7968 19.132 14.6961 18.5508 16.1924 17.3508L19.2591 20.4174C19.3366 20.4955 19.4287 20.5575 19.5303 20.5998C19.6318 20.6421 19.7407 20.6639 19.8508 20.6639C19.9608 20.6639 20.0697 20.6421 20.1712 20.5998C20.2728 20.5575 20.3649 20.4955 20.4424 20.4174C20.5926 20.262 20.6766 20.0544 20.6766 19.8383C20.6766 19.6221 20.5926 19.4145 20.4424 19.2591ZM11.5174 17.3508C10.3637 17.3508 9.23588 17.0086 8.27659 16.3677C7.3173 15.7267 6.56963 14.8156 6.12812 13.7497C5.68661 12.6838 5.57109 11.5109 5.79617 10.3794C6.02125 9.24784 6.57682 8.20843 7.39263 7.39263C8.20843 6.57682 9.24784 6.02125 10.3794 5.79617C11.5109 5.57109 12.6838 5.68661 13.7497 6.12812C14.8156 6.56963 15.7267 7.3173 16.3677 8.27659C17.0086 9.23588 17.3508 10.3637 17.3508 11.5174C17.3508 13.0645 16.7362 14.5482 15.6422 15.6422C14.5482 16.7362 13.0645 17.3508 11.5174 17.3508Z" fill="#ECEFF4"/>
</svg>
