<svg width="24" height="24" viewBox="0 0 24 24" fill="none" xmlns="http://www.w3.org/2000/svg">
<path d="M11.6885 5.41551V11.8258C11.6885 11.9016 11.7499 11.9631 11.8258 11.9631H20.6105C20.6864 11.9631 20.7478 11.9016 20.7478 11.8258V4.13729C20.7478 4.09742 20.7305 4.05953 20.7004 4.03344C20.6703 4.00735 20.6303 3.99571 20.5907 4.00142L11.806 5.27964C11.7385 5.28947 11.6885 5.34735 11.6885 5.41551Z" fill="#ECEFF4"/>
<path d="M10.7275 19.3743C10.7605 19.3743 10.7926 19.3624 10.8178 19.3404C10.8476 19.3143 10.8648 19.2766 10.8648 19.237V12.9242C10.8648 12.8484 10.8033 12.7869 10.7275 12.7869H4.1423C4.10589 12.7869 4.07096 12.8014 4.0452 12.8271C4.01945 12.8529 4.005 12.8878 4.005 12.9242L4.00533 18.3345C4.00533 18.4031 4.05602 18.4612 4.12396 18.4705L10.7088 19.3731C10.715 19.3738 10.7213 19.3743 10.7275 19.3743Z" fill="#ECEFF4"/>
<path d="M4.14328 11.963H10.7275C10.8034 11.963 10.8648 11.9016 10.8648 11.8257V5.57505C10.8648 5.5354 10.8477 5.49772 10.8179 5.47164C10.788 5.44555 10.7486 5.43358 10.7091 5.43902L4.11884 6.33396C4.05069 6.34324 3.99995 6.4014 4 6.47016L4.00599 11.8258C4.0061 11.9016 4.06755 11.963 4.14328 11.963Z" fill="#ECEFF4"/>
<path d="M20.6105 20.7501C20.6434 20.7501 20.6754 20.7383 20.7006 20.7164C20.7306 20.6903 20.7478 20.6525 20.7478 20.6128L20.75 12.9242C20.75 12.8878 20.7356 12.8529 20.7098 12.8271C20.6841 12.8014 20.6491 12.7869 20.6127 12.7869H11.8258C11.7499 12.7869 11.6885 12.8484 11.6885 12.9242V19.3769C11.6885 19.4453 11.7389 19.5033 11.8066 19.5129L20.5913 20.7487C20.5978 20.7496 20.6041 20.7501 20.6105 20.7501Z" fill="#ECEFF4"/>
</svg>
